<svg xmlns="http://www.w3.org/2000/svg" xmlns:xlink="http://www.w3.org/1999/xlink" viewBox="0 0 354.87 305.19"><defs><style>.cls-1{fill:none;}.cls-2{fill:#82be50;}.cls-3{clip-path:url(#clip-path);}.cls-4{fill:#6eaa50;}.cls-5{fill:#fff;}.cls-6{fill:#5fd2d0;}.cls-7{fill:#ffc305;}</style><clipPath id="clip-path" transform="translate(3.48)"><circle class="cls-1" cx="206.2" cy="225.12" r="72.82" transform="translate(-77.47 112.29) rotate(-25.82)"/></clipPath></defs><g id="图层_2" data-name="图层 2"><g id="OBJECTS"><circle class="cls-2" cx="206.2" cy="225.12" r="72.82" transform="translate(-73.99 112.29) rotate(-25.82)"/><g class="cls-3"><path class="cls-4" d="M300.7,258.25a153,153,0,0,0-8-19.33,168.54,168.54,0,0,0-23.15-35,162.48,162.48,0,0,0-70.91-45.79l-21.06-5.61c-7.34-1.68-14.7-3.16-22-5.05a382.79,382.79,0,0,1-43.36-12.9c-14.14-5.27-28.12-11.76-40-21.3-12.1-9.35-20.82-22-28.17-34.92,8.26,12.4,17.75,24.22,30.05,32.39,12.11,8.38,26,13.69,40.13,17.85a374.71,374.71,0,0,0,43.3,9.62c7.28,1.35,14.67,2.29,22,3.44L202.12,146a178.3,178.3,0,0,1,81.18,44.91,188.36,188.36,0,0,1,28.86,37.61,177,177,0,0,1,10.65,21.35c.08.2.15.4.23.59C308.32,178.15,270.87,76.67,176.23,66.1l.54,40.43-4.41-6.62A96.41,96.41,0,0,0,106.2,58.09C57.92,50.91,29.12,41.28,12,25.11A9.16,9.16,0,0,0-3.43,32.6C2.21,89.75,27.12,196.79,134.83,190.67c91.5-5.2,140.31,33.75,167.48,72.53C301.82,261.54,301.29,259.89,300.7,258.25Z" transform="translate(3.48)"/></g><path class="cls-5" d="M229.85,215A25.75,25.75,0,1,1,196,201.47,25.74,25.74,0,0,1,229.85,215Z" transform="translate(3.48)"/><path class="cls-6" d="M304.18,235.7a153,153,0,0,0-8-19.33,168,168,0,0,0-23.15-35,162.48,162.48,0,0,0-70.91-45.79l-21.06-5.61c-7.34-1.68-14.7-3.15-22-5A381.35,381.35,0,0,1,115.71,112c-14.14-5.26-28.12-11.76-40-21.3-12.1-9.35-20.82-22-28.17-34.91,8.26,12.4,17.75,24.21,30,32.38,12.11,8.38,26,13.69,40.13,17.85a375.18,375.18,0,0,0,43.3,9.62c7.28,1.35,14.67,2.3,22,3.44l22.61,4.35a178.23,178.23,0,0,1,81.18,44.92,188,188,0,0,1,28.86,37.6,177,177,0,0,1,10.65,21.35c.08.2.15.4.24.59C311.8,155.6,274.35,54.13,179.72,43.55L180.25,84l-4.41-6.62a96.37,96.37,0,0,0-66.16-41.81C61.4,28.36,32.6,18.74,15.52,2.56A9.16,9.16,0,0,0,.05,10.05C5.69,67.21,30.6,174.25,138.32,168.13c91.5-5.2,140.3,33.75,167.47,72.52C305.3,239,304.77,237.34,304.18,235.7Z" transform="translate(3.48)"/><path class="cls-7" d="M326.07,284.4a3.54,3.54,0,0,0-2-2.43,5.61,5.61,0,0,1-3.28-3.83c-.73-3.18,1.52-6.4,5-7.21s6.94,1.11,7.67,4.28a5.63,5.63,0,0,1-1.27,4.88,3.51,3.51,0,0,0-.72,3.06l3.76,16.33a3.61,3.61,0,0,0,7,0,223.33,223.33,0,0,1,8.84-28.74,3.61,3.61,0,0,0-.44-3.38l-19-26.71a3.61,3.61,0,0,0-3.75-1.43l-8.83,2-.23,0-8.83,2a3.63,3.63,0,0,0-2.75,2.93l-5.41,32.34a3.58,3.58,0,0,0,1.09,3.23,224,224,0,0,1,20.54,22,3.61,3.61,0,0,0,6.32-3.09Z" transform="translate(3.48)"/></g></g></svg>